<?xml version="1.0" encoding="iso-8859-1"?>
<!-- Generator: Adobe Illustrator 18.1.1, SVG Export Plug-In . SVG Version: 6.00 Build 0)  -->
<svg version="1.1" id="Layer_1" xmlns="http://www.w3.org/2000/svg" xmlns:xlink="http://www.w3.org/1999/xlink" x="0px" y="0px"
	 viewBox="0 0 250 250" style="enable-background:new 0 0 250 250;" xml:space="preserve">
<g id="Facebook_5_">
	<path style="fill:#FFFFFF;" d="M124.955-1.001C56.168-1.001,0.483,54.684,0.483,123.471s55.685,124.472,124.472,124.472
		s124.472-55.685,124.472-124.472S193.742-1.001,124.955-1.001z M185.553,175.88c0,3.603-1.638,6.224-5.569,6.224h-30.463v-45.858
		h15.723l2.293-19.653h-18.016v-10.154c0-5.241,1.31-9.499,8.844-9.499h10.809V81.216c-3.276-0.327-8.517-0.655-15.068-0.655
		c-13.757,0-24.239,8.516-24.239,23.912v12.12H113.49v19.653h16.378v45.858H73.201c-3.603,0-5.569-2.293-5.569-6.224V68.769
		c0-3.603,1.965-8.189,5.569-8.189h107.111c3.603,0,5.569,4.586,5.569,8.189V175.88H185.553z"/>
</g>
</svg>
