<?xml version="1.0" encoding="iso-8859-1"?>
<!-- Generator: Adobe Illustrator 18.1.1, SVG Export Plug-In . SVG Version: 6.00 Build 0)  -->
<svg version="1.1" id="Layer_1" xmlns="http://www.w3.org/2000/svg" xmlns:xlink="http://www.w3.org/1999/xlink" x="0px" y="0px"
	 viewBox="0 0 250 250" style="enable-background:new 0 0 250 250;" xml:space="preserve">
<g>
	<path style="fill:#FFFFFF;" d="M128.454,147.212c12.8,0,23.303-10.191,23.303-23.012s-10.503-23.012-23.303-23.012
		c-12.8,0-22.975,10.52-22.975,23.012C105.478,137.021,115.653,147.212,128.454,147.212z"/>
	<path style="fill:#FFFFFF;" d="M158.322,98h11.16c1.969,0,3.519-2.073,3.519-4.045V82.777c0-1.972-1.549-3.777-3.519-3.777h-11.16
		c-1.969,0-3.322,1.805-3.322,3.777v11.178C155,95.927,156.353,98,158.322,98z"/>
	<path style="fill:#FFFFFF;" d="M125.172-0.396C56.289-0.396,0.448,55.534,0.448,124.528s55.841,124.925,124.724,124.925
		s124.724-55.931,124.724-124.925S194.055-0.396,125.172-0.396z M189,170.224c0,7.89-6.718,13.776-14.595,13.776H82.831
		C74.954,184,68,178.114,68,170.224v-92.05C68,70.285,74.954,64,82.831,64h91.573C182.282,64,189,70.285,189,78.175V170.224z"/>
	<path style="fill:#FFFFFF;" d="M165.871,124.391c0,20.054-16.411,36.376-36.761,36.376S92.35,144.406,92.35,124.353
		c0-3.287,0.656-8.353,2.626-11.353H80v56.238c0,1.972,1.519,3.762,3.488,3.762h90.26c1.969,0,3.61-2,3.61-4H178v-56h-15.083
		C165.543,116,165.871,121.104,165.871,124.391z"/>
</g>
</svg>
