<?xml version="1.0" encoding="utf-8"?>
<!-- Generator: Adobe Illustrator 18.1.0, SVG Export Plug-In . SVG Version: 6.00 Build 0)  -->
<svg version="1.1" id="Layer_1" xmlns="http://www.w3.org/2000/svg" xmlns:xlink="http://www.w3.org/1999/xlink" x="0px" y="0px"
	 viewBox="0 0 278.8 394.8" enable-background="new 0 0 278.8 394.8" xml:space="preserve">
<g>
	<linearGradient id="SVGID_1_" gradientUnits="userSpaceOnUse" x1="-40.4096" y1="-201.3751" x2="8.1847" y2="-152.7808">
		<stop  offset="0" style="stop-color:#5AC096"/>
		<stop  offset="1" style="stop-color:#00507F"/>
	</linearGradient>
	<rect x="-57.8" y="-184" fill="url(#SVGID_1_)" width="83.3" height="13.8"/>
	<linearGradient id="SVGID_2_" gradientUnits="userSpaceOnUse" x1="-43.1015" y1="-173.7917" x2="-3.089945e-002" y2="-130.7211">
		<stop  offset="0" style="stop-color:#5AC096"/>
		<stop  offset="1" style="stop-color:#00507F"/>
	</linearGradient>
	<rect x="-57.8" y="-159.1" fill="url(#SVGID_2_)" width="72.4" height="13.7"/>
	<linearGradient id="SVGID_3_" gradientUnits="userSpaceOnUse" x1="-47.2618" y1="-145.0197" x2="-12.6514" y2="-110.4094">
		<stop  offset="0" style="stop-color:#5AC096"/>
		<stop  offset="1" style="stop-color:#00507F"/>
	</linearGradient>
	<rect x="-57.8" y="-134.5" fill="url(#SVGID_3_)" width="55.7" height="13.6"/>
</g>
<linearGradient id="SVGID_4_" gradientUnits="userSpaceOnUse" x1="-2.258" y1="104.479" x2="282.7098" y2="311.5202">
	<stop  offset="0" style="stop-color:#B0FEB4"/>
	<stop  offset="0.1283" style="stop-color:#93E2AB"/>
	<stop  offset="0.4319" style="stop-color:#55A498"/>
	<stop  offset="0.6889" style="stop-color:#27768B"/>
	<stop  offset="0.8861" style="stop-color:#0B5A82"/>
	<stop  offset="1" style="stop-color:#00507F"/>
</linearGradient>
<path fill="url(#SVGID_4_)" d="M275.3,140.7c0-75.1-60.8-135.9-135.9-135.9C64.4,4.8,3.5,65.6,3.5,140.7
	c0,73.7,58.6,133.6,131.7,135.8L69,390.9h156l-66-115.7C224.8,265.7,275.3,209.1,275.3,140.7z M147.6,255.2L88.8,152h118.6
	 M140.3,280.6l59,104.3H80.2L140.3,280.6 M153,258.5l64.6-112.1H64.3l63.6,112.4c-60.1-5.8-107-56.4-107-118
	c0-65.5,53.1-118.6,118.6-118.6S258,75.2,258,140.7C258,201.6,212.1,251.8,153,258.5z"/>
</svg>
