<?xml version="1.0" encoding="iso-8859-1"?>
<!-- Generator: Adobe Illustrator 18.1.1, SVG Export Plug-In . SVG Version: 6.00 Build 0)  -->
<svg version="1.1" id="Layer_1" xmlns="http://www.w3.org/2000/svg" xmlns:xlink="http://www.w3.org/1999/xlink" x="0px" y="0px"
	 viewBox="0 0 250 250" style="enable-background:new 0 0 250 250;" xml:space="preserve">
<path style="fill:#FFFFFF;" d="M124.537,1.005C55.933,1.005,0.318,56.62,0.318,125.224s55.615,124.219,124.219,124.219
	s124.219-55.615,124.219-124.219S193.142,1.005,124.537,1.005z M173,99.727c0,0.981,0,2.288,0,3.269
	c0,33.997-25.539,73.224-71.631,73.224c-14.383,0-27.479-4.25-38.594-11.441c1.961,0.327,3.912,0.327,5.874,0.327
	c11.768,0,22.551-4.25,31.05-11.114c-11.114-0.327-20.27-7.846-23.539-17.979c1.308,0.327,2.941,0.327,4.575,0.327
	c2.288,0,4.574-0.327,6.535-0.981C75.502,133.07,67,122.609,67,110.187v-0.327c4,1.961,7.194,3.269,11.444,3.269
	c-6.538-4.903-11.113-12.749-11.113-21.575c0-4.903,0.981-9.153,3.27-13.076c12.422,15.364,30.728,25.825,51.649,26.805
	c-0.327-1.961-0.654-3.923-0.654-5.884c0-14.383,11.441-25.825,25.171-25.825c7.191,0,13.729,3.269,18.306,8.172
	c5.884-0.981,11.114-3.269,16.018-6.211c-1.961,5.884-5.884,10.788-10.134,14.71c4.903-0.327,9.848-1.961,14.424-3.923
	C182.112,91.555,178,96.131,173,99.727z"/>
</svg>
